<!DOCTYPE svg PUBLIC "-//W3C//DTD SVG 1.1//EN" "http://www.w3.org/Graphics/SVG/1.1/DTD/svg11.dtd">
<!-- Uploaded to: SVG Repo, www.svgrepo.com, Transformed by: SVG Repo Mixer Tools -->
<svg fill="" width="800px" height="800px" viewBox="-10 -10 120.00 120.00" version="1.1" xml:space="preserve" xmlns="http://www.w3.org/2000/svg" xmlns:xlink="http://www.w3.org/1999/xlink" stroke="">
<g id="SVGRepo_bgCarrier" stroke-width="0" transform="translate(0,0), scale(1)">
<path transform="translate(-10, -10), scale(3.75)" d="M16,30.054878353008203C18.127247624297997,30.508409202633494,20.497180029096622,30.34255514938952,22.397042489655448,29.283595604551905C24.283250051088547,28.232247129496013,25.500849977686187,26.2478957813873,26.373669134474333,24.272725079814045C27.162407861195256,22.487826556335033,26.686256683240824,20.440512783954105,27.143112518794467,18.543342716810024C27.606302051720917,16.61987091477517,29.326288437584417,14.977120538258808,29.08500948797264,13.013431972037049C28.84430829239353,11.054445552396494,27.273521922799365,9.515336562640924,25.864072535703677,8.133664646770544C24.537696595690853,6.833428963970908,22.623171704587214,6.41849275129142,21.173262433017175,5.257609867755974C19.273432544349614,3.7364940002817217,18.40161387019305,0.6301117689616513,16.000000000000004,0.23590635721172504C13.720294534191096,-0.13828878005466744,11.65828977748259,1.8708101406170372,9.938682654325323,3.413544840291486C8.405890996486294,4.788679221904262,7.778468479727662,6.828814043940598,6.697548294640649,8.581542313612177C5.733952091991923,10.144027988532429,4.645576586884251,11.564715827459766,3.882216731704194,13.234195044937337C2.991799782673829,15.181549993207891,1.6370262771034025,17.102168500947208,1.8262894640522855,19.235056937724977C2.017252084486527,21.38709702300041,3.2617449412285238,23.448066767715297,4.912258421389053,24.842178851747203C6.5117483863626955,26.19319374211977,8.899482864999198,25.919083236970774,10.794241286089072,26.809869354828926C12.668210991306575,27.690882037033706,13.974780685435547,29.62310001845015,16,30.054878353008203" fill="#ee9d11" strokewidth="0"/>
</g>
<g id="SVGRepo_tracerCarrier" stroke-linecap="round" stroke-linejoin="round"/>
<g id="SVGRepo_iconCarrier"> <g id="network"/> <g id="connection"/> <g id="page"/> <g id="support"/> <g id="configuration"/> <g id="cloud_storage"/> <g id="password"/> <g id="search_engine"> <g> <path d="M86.3,13.7C80.1,7.4,71.8,4,63,4s-17.1,3.4-23.3,9.7C28.3,25,27,42.6,35.6,55.4c-0.1,0-0.2,0.1-0.2,0.1l-6.1,6.1l-0.2-0.2 c-1.2-1.2-3.1-1.2-4.2,0l-20,20c-1.2,1.2-1.2,3.1,0,4.2l9.3,9.3c0.6,0.6,1.4,0.9,2.1,0.9c0.8,0,1.5-0.3,2.1-0.9l20-20 c1.2-1.2,1.2-3.1,0-4.2l-0.2-0.2l6.1-6.1c0.1-0.1,0.1-0.1,0.1-0.2C50,68,56.3,70,63,70c8.8,0,17.1-3.4,23.3-9.7 C92.6,54.1,96,45.8,96,37S92.6,19.9,86.3,13.7z M37,73.7l-20,20c-0.4,0.4-1,0.4-1.4,0l-9.3-9.3c-0.4-0.4-0.4-1,0-1.4l20-20 c0.2-0.2,0.5-0.3,0.7-0.3c0.3,0,0.5,0.1,0.7,0.3l0.9,0.9l7.6,7.6l0.9,0.9C37.4,72.7,37.4,73.3,37,73.7z M36.9,69.3l-6.2-6.2 l6.1-6.1c0.9,1.1,1.8,2.3,2.9,3.3c1,1,2.2,2,3.3,2.9L36.9,69.3z M84.9,58.9C79.1,64.8,71.3,68,63,68s-16.1-3.2-21.9-9.1 S32,45.3,32,37s3.2-16.1,9.1-21.9S54.7,6,63,6s16.1,3.2,21.9,9.1C90.8,20.9,94,28.7,94,37S90.8,53.1,84.9,58.9z"/> <path d="M82.8,17.2C77.5,11.9,70.5,9,63,9s-14.5,2.9-19.8,8.2C37.9,22.5,35,29.5,35,37s2.9,14.5,8.2,19.8C48.5,62.1,55.5,65,63,65 s14.5-2.9,19.8-8.2C88.1,51.5,91,44.5,91,37S88.1,22.5,82.8,17.2z M77,36c-0.1-3.2-0.4-6.3-0.9-9.3c2,0.6,3.9,1.2,5.6,2.1 c4.2,2,6.7,4.6,7.2,7.3H77z M75,36H64V25c3.4,0.1,6.7,0.4,9.9,1.1C74.6,29.3,74.9,32.6,75,36z M64,23V11.1c2.7,0.5,5.3,3,7.3,7.2 c0.8,1.7,1.5,3.6,2.1,5.6C70.3,23.4,67.2,23.1,64,23z M62,11.1V23c-3.2,0.1-6.3,0.4-9.3,0.9c0.6-2,1.2-3.9,2.1-5.6 C56.7,14.1,59.3,11.6,62,11.1z M62,25v11H51c0.1-3.4,0.4-6.7,1.1-9.9C55.3,25.4,58.6,25.1,62,25z M49,36H37.1 c0.5-2.7,3-5.3,7.2-7.3c1.7-0.8,3.6-1.5,5.6-2.1C49.4,29.7,49.1,32.8,49,36z M49,38c0.1,3.2,0.4,6.3,0.9,9.3 c-2-0.6-3.9-1.2-5.6-2.1c-4.2-2-6.7-4.6-7.2-7.3H49z M51,38h11v11c-3.4-0.1-6.7-0.4-9.9-1.1C51.4,44.7,51.1,41.4,51,38z M62,51 v11.9c-2.7-0.5-5.3-3-7.3-7.2c-0.8-1.7-1.5-3.6-2.1-5.6C55.7,50.6,58.8,50.9,62,51z M64,62.9V51c3.2-0.1,6.3-0.4,9.3-0.9 c-0.6,2-1.2,3.9-2.1,5.6c0,0,0,0,0,0C69.3,59.9,66.7,62.4,64,62.9z M64,49V38h11c-0.1,3.4-0.4,6.7-1.1,9.9 C70.7,48.6,67.4,48.9,64,49z M77,38h11.9c-0.5,2.7-3,5.3-7.2,7.3c-1.7,0.8-3.6,1.5-5.6,2.1C76.6,44.3,76.9,41.2,77,38z M81.4,18.6 c3.4,3.4,5.8,7.7,6.9,12.3c-1.4-1.5-3.3-2.8-5.8-4c-2.1-1-4.5-1.8-7-2.4c-0.6-2.5-1.4-4.9-2.4-7c-1.2-2.4-2.5-4.3-4-5.8 C73.7,12.8,77.9,15.2,81.4,18.6z M44.6,18.6c3.4-3.4,7.7-5.8,12.3-6.9c-1.5,1.4-2.8,3.3-4,5.8c-1,2.1-1.8,4.5-2.4,7 c-2.5,0.6-4.9,1.4-7,2.4c-2.4,1.2-4.3,2.5-5.8,4C38.8,26.3,41.2,22.1,44.6,18.6z M44.6,55.4c-3.4-3.4-5.8-7.7-6.9-12.3 c1.4,1.5,3.3,2.8,5.8,4c2.1,1,4.5,1.8,7,2.4c0.6,2.5,1.4,4.9,2.4,7c1.2,2.4,2.5,4.3,4,5.8C52.3,61.2,48.1,58.8,44.6,55.4z M81.4,55.4c-3.4,3.4-7.7,5.8-12.3,6.9c1.5-1.4,2.8-3.3,4-5.8v0c1-2.1,1.8-4.5,2.4-7c2.5-0.6,4.9-1.4,7-2.4c2.4-1.2,4.3-2.5,5.8-4 C87.2,47.7,84.8,51.9,81.4,55.4z"/> </g> </g> <g id="history"/> <g id="SEO"/> <g id="optimization"/> <g id="backlink"/> <g id="performance"/> <g id="analytics"/> <g id="security"/> <g id="dark_web"/> <g id="video_player"/> <g id="upload_download"/> <g id="incognito_tab"/> <g id="bookmark"/> </g>
</svg>