<!DOCTYPE svg PUBLIC "-//W3C//DTD SVG 1.1//EN" "http://www.w3.org/Graphics/SVG/1.1/DTD/svg11.dtd">
<!-- Uploaded to: SVG Repo, www.svgrepo.com, Transformed by: SVG Repo Mixer Tools -->
<svg width="800px" height="800px" viewBox="-6.4 -6.4 76.80 76.80" xmlns="http://www.w3.org/2000/svg" fill="#000000">
<g id="SVGRepo_bgCarrier" stroke-width="0">
<path transform="translate(-6.4, -6.4), scale(2.4)" d="M16,30.458885262409847C18.27487812888577,30.184610138201702,18.51202082689141,26.491479399045666,20.527543741885403,25.401541453942215C22.4058477893477,24.38580760217569,25.12873400034414,25.93982719365024,26.804361886654146,24.616191088461967C28.401191510560505,23.35480044122752,28.94207180762679,20.934759484898514,28.746303321126366,18.90926055564459C28.553304713741976,16.91241990170344,26.501057651292346,15.635981046381596,25.756362778455365,13.77317386203461C25.14541648099404,12.244930290509064,25.866751129982674,10.234457998515463,24.78314658721966,8.995674326039019C23.693125326372137,7.749555020238531,21.643511639561318,8.096805538087636,20.155743428351258,7.370509852363744C18.65855770034609,6.639616742278327,17.663102369434704,4.608636232014363,16,4.707935533589787C14.30562752209447,4.809101887962684,13.650019414411345,7.2162148812489955,12.076561378030114,7.852895753341246C10.35260519168928,8.550473891931256,8.244725438673253,7.628701522482561,6.606473896998194,8.508912905083825C4.830334272661862,9.463209772603616,3.147497783147811,11.000815456831548,2.6039087600052806,12.94242959213615C2.0609963356740577,14.88162702334991,3.4433273448788015,16.8077382519212,3.724818731891819,18.801730021401895C4.032505617900647,20.981282031106456,2.851299412188948,23.67807753887466,4.347386579824057,25.292649113524284C5.881900611568766,26.94869081360273,8.850345612825322,25.645522567254602,10.914291772408488,26.560581951317744C12.891741747755043,27.43729288103586,13.852468807268714,30.71780655456528,16,30.458885262409847" fill="#ee9d11" strokewidth="0"/>
</g>
<g id="SVGRepo_tracerCarrier" stroke-linecap="round" stroke-linejoin="round"/>
<g id="SVGRepo_iconCarrier"> <defs> <style>.cls-1{fill:none;stroke:#000000;stroke-linecap:round;stroke-linejoin:round;stroke-width:2px;}</style> </defs> <g id="e-shop"> <circle class="cls-1" cx="11.5" cy="24.5" r="2.5"/> <path d="M55.6324,14.5A1.1324,1.1324,0,1,1,54.5,13.3676,1.1324,1.1324,0,0,1,55.6324,14.5Z"/> <rect class="cls-1" height="22" rx="2.3073" width="45" x="3" y="39"/> <rect class="cls-1" height="3" width="20" x="19" y="55"/> <rect class="cls-1" height="3" width="3" x="42" y="55"/> <rect class="cls-1" height="3" width="3" x="36" y="49"/> <rect class="cls-1" height="3" width="3" x="30" y="49"/> <rect class="cls-1" height="3" width="3" x="24" y="49"/> <rect class="cls-1" height="3" width="9" x="12" y="49"/> <rect class="cls-1" height="3" width="3" x="6" y="49"/> <rect class="cls-1" height="3" width="10" x="6" y="55"/> <rect class="cls-1" height="3" width="3" x="42" y="49"/> <line class="cls-1" x1="42" x2="45" y1="43" y2="43"/> <line class="cls-1" x1="36" x2="39" y1="43" y2="43"/> <line class="cls-1" x1="30" x2="33" y1="43" y2="43"/> <line class="cls-1" x1="24" x2="27" y1="43" y2="43"/> <line class="cls-1" x1="18" x2="21" y1="43" y2="43"/> <line class="cls-1" x1="12" x2="15" y1="43" y2="43"/> <line class="cls-1" x1="6" x2="9" y1="43" y2="43"/> <line class="cls-1" x1="42" x2="45" y1="46" y2="46"/> <line class="cls-1" x1="36" x2="39" y1="46" y2="46"/> <line class="cls-1" x1="30" x2="33" y1="46" y2="46"/> <line class="cls-1" x1="24" x2="27" y1="46" y2="46"/> <line class="cls-1" x1="18" x2="21" y1="46" y2="46"/> <line class="cls-1" x1="12" x2="15" y1="46" y2="46"/> <line class="cls-1" x1="6" x2="9" y1="46" y2="46"/> <rect class="cls-1" height="15" rx="4.9009" width="10" x="51" y="42"/> <line class="cls-1" x1="56" x2="56" y1="47" y2="45"/> <path class="cls-1" d="M26,39V37a3,3,0,0,1,3-3h0a3,3,0,0,0,3-3V26"/> <path class="cls-1" d="M55.9009,42V37a3,3,0,0,0-3-3H41a3,3,0,0,1-3-3V26"/> <polygon class="cls-1" points="44.929 20 24.929 20 22.929 8 46.929 8 44.929 20"/> <circle class="cls-1" cx="41.9286" cy="22" r="2"/> <circle class="cls-1" cx="27.9286" cy="22" r="2"/> <polyline class="cls-1" points="18.929 4 21.929 4 22.929 8"/> <line class="cls-1" x1="38.0301" x2="33.0301" y1="10.9699" y2="15.9699"/> <circle cx="33.53" cy="11.47" r="1.1323"/> <circle cx="37.53" cy="15.47" r="1.1323"/> <line class="cls-1" x1="51.5509" x2="54.5509" y1="24.0547" y2="27.0547"/> <line class="cls-1" x1="54.5509" x2="51.5509" y1="24.0547" y2="27.0547"/> </g> </g>
</svg>