<!DOCTYPE svg PUBLIC "-//W3C//DTD SVG 1.1//EN" "http://www.w3.org/Graphics/SVG/1.1/DTD/svg11.dtd">
<!-- Uploaded to: SVG Repo, www.svgrepo.com, Transformed by: SVG Repo Mixer Tools -->
<svg width="800px" height="800px" viewBox="-4.8 -4.8 57.60 57.60" id="a" xmlns="http://www.w3.org/2000/svg" fill="#000000">
<g id="SVGRepo_bgCarrier" stroke-width="0">
<path transform="translate(-4.8, -4.8), scale(1.7999999999999998)" d="M16,28.227805892626446C18.054591664994817,27.747943592852312,20.247869033536787,27.51721308733897,21.871680605742664,26.1700491349631C23.404515017676946,24.898362628927217,23.624647153219236,22.699921043296555,24.69081106829851,21.017642109758327C25.814630705251563,19.244389354151668,27.863163680086938,18.04972359014323,28.31706798242198,16C28.799338835250065,13.822179832191685,28.60967378729555,11.27088854745284,27.238864975346786,9.511238281097679C25.877518614627263,7.763734569886289,23.09386167458544,8.135994347860859,21.24284896006187,6.919119224763193C19.22931979380772,5.5954040861143906,18.40598109700965,2.2560191580599205,16,2.1226908697022324C13.633508399071426,1.9915509056531355,12.536155997252106,5.270313710239401,10.410582777526646,6.31884538597563C8.071024364575887,7.472934589042882,4.443006390082307,6.31831665397089,3.038351903957368,8.516588982608578C1.6548802299070506,10.681710390442365,3.4765268821968416,13.54189727569523,4.224507884846794,15.999999999999998C4.806476845113797,17.912534518423605,6.3282617300371395,19.334940460869944,6.9120865676406,21.246909266544705C7.725272973579516,23.91001460433098,6.089786969806129,27.644027544094143,8.297994027535113,29.34026566450811C10.390769669521633,30.947834940671083,13.430221032645518,28.827993300273224,16,28.227805892626446" fill="#ee9d11" strokewidth="0"/>
</g>
<g id="SVGRepo_tracerCarrier" stroke-linecap="round" stroke-linejoin="round"/>
<g id="SVGRepo_iconCarrier">
<defs>
<style>.b{fill:none;stroke:#000000;stroke-linecap:round;stroke-linejoin:round;}</style>
</defs>
<line class="b" x1="19.2896" y1="22.2396" x2="14.0083" y2="22.2396"/>
<polyline class="b" points="6.1542 22.2396 5.4771 22.2396 5.4771 37.1354 30.3937 37.1354 30.3937 22.2396 28.3625 22.2396"/>
<polygon class="b" points="35.1333 34.0208 43.8 39.3021 43.8 19.9375 35.1333 25.2187 30.3937 25.2187 30.3937 34.0208 35.1333 34.0208"/>
<circle class="b" cx="23.8937" cy="16.1458" r="7.4479"/>
<circle class="b" cx="9.9458" cy="18.7188" r="5.1458"/>
<circle class="b" cx="23.8937" cy="16.1458" r="2.8438"/>
<circle class="b" cx="9.9458" cy="18.7188" r="1.7604"/>
</g>
</svg>