<!DOCTYPE svg PUBLIC "-//W3C//DTD SVG 1.1//EN" "http://www.w3.org/Graphics/SVG/1.1/DTD/svg11.dtd">
<!-- Uploaded to: SVG Repo, www.svgrepo.com, Transformed by: SVG Repo Mixer Tools -->
<svg fill="#000000" height="800px" width="800px" version="1.1" id="Layer_1" xmlns="http://www.w3.org/2000/svg" xmlns:xlink="http://www.w3.org/1999/xlink" viewBox="-51.2 -51.2 614.43 614.43" xml:space="preserve">
<g id="SVGRepo_bgCarrier" stroke-width="0">
<path transform="translate(-51.2, -51.2), scale(19.2009375)" d="M16,30.702750258147717C18.08893990713222,31.570622398653846,20.74801496686367,31.026697404130026,22.637707079845672,29.783340775479225C24.525264267679145,28.541388858906576,25.34649903494618,26.18548535165146,26.10191962102211,24.056012074394154C26.73957918007632,22.258498191370144,26.368802176375006,20.318261008804736,26.663848487732032,18.433953829210104C26.9377321167657,16.684801683609887,27.852274740820793,15.07943236932371,27.78449714622885,13.31026542740392C27.710855258173176,11.388025568154752,27.51654720349302,9.274280930766556,26.25722817662085,7.820133485450093C24.99855236659689,6.366728768637408,22.783155550336065,6.345761678682849,21.043713940284864,5.526620084808316C19.31952168336349,4.714659749192837,17.902977992689284,3.0936682090148855,16,2.9897774741984904C14.088919980318291,2.8854444192181314,12.534484484344121,4.4726629068205455,10.68391692709028,4.961039753146949C8.380960695602072,5.56880492073206,5.065217332396154,4.244167566497368,3.742162441639797,6.224700741964472C2.360538925376899,8.29290760857443,4.5244317848371605,11.043142317709599,4.988521765056998,13.486701949485091C5.297203196904412,15.111993419005078,6.160265855727307,16.626111040018564,6.03087400685914,18.27538795330762C5.832146743282127,20.808440001992807,2.453401317677427,23.553214688433947,4.043275070596724,25.53516994938595C5.63596904262077,27.52064092853975,9.239089019372297,24.17765499285227,11.575555728884822,25.187453196912557C13.766496762968927,26.134356618396236,13.795850674292607,29.787013148255,16,30.702750258147717" fill="#ee9d11" strokewidth="0"/>
</g>
<g id="SVGRepo_tracerCarrier" stroke-linecap="round" stroke-linejoin="round"/>
<g id="SVGRepo_iconCarrier"> <g transform="translate(1 1)"> <g> <g> <path d="M501.569,54.501l-9.387-6.827c-8.533-6.827-20.48-5.12-26.453,3.413l-14.355,18.724l-1.005-0.804 c-2.56-1.707-4.267-1.707-6.827-1.707c-2.56,0-4.267,1.707-5.973,3.413l-3.179,4.325l-30.954-7.739 c-2.56-0.853-6.827,0.853-8.533,3.413l-18.773,25.031V84.835c0.086-0.979-0.025-1.936-0.314-2.851 c-0.328-1.149-0.919-2.131-1.773-3.083c-0.151-0.172-0.308-0.341-0.473-0.506l-76.8-76.8c-0.165-0.165-0.334-0.322-0.506-0.473 c-0.952-0.854-1.934-1.445-3.083-1.773c-0.915-0.289-1.872-0.401-2.851-0.314H9.196c-5.12,0-8.533,3.413-8.533,8.533v494.933 c0,5.12,3.413,8.533,8.533,8.533h358.4c5.12,0,8.533-3.413,8.533-8.533V271.658l118.613-156.57 c2.56-3.413,1.707-9.387-1.707-11.947l-1.998-1.598l14.798-20.588C511.809,72.421,510.102,60.475,501.569,54.501z M404.289,85.221l19.282,4.537l-47.442,64.54v-31.362L404.289,85.221z M314.689,320.741l-26.386-17.875l10.35-14.158 l25.241,19.87L314.689,320.741z M334.191,294.971l-25.42-20.011l9.843-13.354l26.044,19.533L334.191,294.971z M280.777,318.56 l21.52,16.14l-29.421,20.174l-3.189-2.392L280.777,318.56z M354.958,267.529l-26.217-19.663l10.189-13.823l26.659,19.439 L354.958,267.529z M375.888,239.872l-26.834-19.566l10.168-13.796l27.147,19.512L375.888,239.872z M347.116,75.835h-47.787 V28.048L347.116,75.835z M359.063,493.968H17.729V16.101h264.533v68.267c0,5.12,3.413,8.533,8.533,8.533h68.267v25.6 l-15.36,20.48c-2.56,3.413-1.707,9.387,1.707,11.947c1.707,0.853,3.413,1.707,5.12,1.707c2.56,0,5.12-0.853,5.973-3.413 l2.56-3.429v31.589l-90.453,122.027c0,0.853-0.853,1.707-0.853,2.56l-17.067,51.2c-0.825,3.3,0.746,6.599,3.165,9.128 l-4.872,7.086c-2.56,4.267-1.707,9.387,2.56,11.947c1.707,0.853,3.413,1.707,5.12,1.707c2.56,0,5.12-0.853,6.827-4.267 l4.161-6.052l0.106,0.079c1.707,0.853,3.413,1.707,5.12,1.707c1.707,0,3.413-0.853,4.267-0.853l44.373-30.72 c0.23-0.23,0.459-0.478,0.685-0.737l0.169-0.117c0.853,0,0.853-0.853,1.707-1.707l34.987-46.182V493.968z M398.152,213.745 l-29.08-20.598l77.031-104.512l29.013,23.04L398.152,213.745z M490.476,70.715l-14.11,19.09l-11.867-9.494l14.031-18.983 c0.853-0.853,1.707-0.853,2.56,0l9.387,6.827C491.329,69.008,491.329,69.861,490.476,70.715z"/> <path d="M179.862,161.168h-102.4c-5.12,0-8.533,3.413-8.533,8.533s3.413,8.533,8.533,8.533h102.4c5.12,0,8.533-3.413,8.533-8.533 S184.982,161.168,179.862,161.168z"/> <path d="M179.862,263.568h-102.4c-5.12,0-8.533,3.413-8.533,8.533c0,5.12,3.413,8.533,8.533,8.533h102.4 c5.12,0,8.533-3.413,8.533-8.533C188.396,266.981,184.982,263.568,179.862,263.568z"/> <path d="M179.862,365.968h-102.4c-5.12,0-8.533,3.413-8.533,8.533s3.413,8.533,8.533,8.533h102.4c5.12,0,8.533-3.413,8.533-8.533 S184.982,365.968,179.862,365.968z"/> <path d="M242.156,184.208c1.707,1.707,3.413,2.56,5.973,2.56s5.12-0.853,5.973-3.413l42.667-51.2 c3.413-3.413,2.56-8.533-0.853-11.947s-8.533-2.56-11.947,0.853l-36.693,44.373l-10.24-10.24c-3.413-3.413-8.533-3.413-11.947,0 s-3.413,8.533,0,11.947L242.156,184.208z"/> <path d="M254.102,285.755l42.667-51.2c3.413-3.413,2.56-8.533-0.853-11.947s-8.533-2.56-11.947,0.853l-36.693,44.373 l-10.24-10.24c-3.413-3.413-8.533-3.413-11.947,0s-3.413,8.533,0,11.947l17.067,17.067c1.707,1.707,3.413,2.56,5.973,2.56 S253.249,288.315,254.102,285.755z"/> </g> </g> </g> </g>
</svg>