<!DOCTYPE svg PUBLIC "-//W3C//DTD SVG 1.1//EN" "http://www.w3.org/Graphics/SVG/1.1/DTD/svg11.dtd">
<!-- Uploaded to: SVG Repo, www.svgrepo.com, Transformed by: SVG Repo Mixer Tools -->
<svg fill="#000000" version="1.1" id="Layer_1" xmlns="http://www.w3.org/2000/svg" xmlns:xlink="http://www.w3.org/1999/xlink" viewBox="-49.6 -49.6 595.20 595.20" xml:space="preserve" width="800px" height="800px">
<g id="SVGRepo_bgCarrier" stroke-width="0">
<path transform="translate(-49.6, -49.6), scale(18.6)" d="M16,31.145349725016526C19.04595622992173,30.9126759729258,20.61330557117956,27.460641540281998,22.71801355236886,25.246552394960823C24.391160478305693,23.486452428432,25.80437800152721,21.687923983693317,26.99968460073704,19.574014179129257C28.528192081615387,16.870835804380715,31.60423732195875,14.1950705079017,30.635342775815168,11.244688871017678C29.66588600303478,8.292595197306124,25.293732052971254,8.494433028486775,22.767217342324667,6.685724398125345C20.269426442610527,4.897578879671183,19.071572426353544,0.8105858711181352,16.000000000000004,0.7673816638333459C12.934681790296573,0.724265427279846,11.6291193067269,4.771079511742883,9.09304047756381,6.493385787892613C6.422576724336771,8.306955787974623,2.3746522634864293,8.236742913528404,0.8286955765400279,11.070544375272435C-0.7613839105665734,13.985224723628214,-0.1885397513939504,17.80873587131827,1.3013435880930544,20.77588297638866C2.6948458426132884,23.551084276265232,5.954969348657821,24.543066807461972,8.492484505830845,26.33320859383163C10.98228727538334,28.08969070389727,12.961828423927814,31.377428824891926,16,31.145349725016526" fill="#ee9d11" strokewidth="0"/>
</g>
<g id="SVGRepo_tracerCarrier" stroke-linecap="round" stroke-linejoin="round"/>
<g id="SVGRepo_iconCarrier"> <g> <g> <g> <path d="M456,80h-56V0H96v80H40C17.944,80,0,97.944,0,120v288c0,22.056,17.944,40,40,40h80v32H88v16h320v-16h-32v-32h80 c22.056,0,40-17.944,40-40V120C496,97.944,478.056,80,456,80z M400,144l16,12l-16,12V144z M313.024,253.232L416,176v166.48 L313.024,253.232z M402.552,352H93.448l102.624-88.944L214.4,276.8c9.632,7.224,21.56,11.2,33.6,11.2 c12.04,0,23.976-3.976,33.6-11.2l18.32-13.744L402.552,352z M112,16h272v164l-112,84c-13.752,10.312-34.248,10.312-48,0l-112-84 V16z M182.976,253.232L80,342.48V176L182.976,253.232z M80,156l16-12v24L80,156z M360,480H136v-32h224V480z M480,408 c0,13.232-10.768,24-24,24H40c-13.232,0-24-10.768-24-24v-8h464V408z M480,384H16V120c0-13.232,10.768-24,24-24h56v28l-32,24v220 h368V148l-32-24V96h56c13.232,0,24,10.768,24,24V384z"/> <rect x="128" y="32" width="240" height="16"/> <rect x="128" y="64" width="240" height="16"/> <rect x="128" y="96" width="240" height="16"/> <rect x="128" y="128" width="240" height="16"/> <rect x="352" y="160" width="16" height="16"/> <rect x="272" y="160" width="64" height="16"/> </g> </g> </g> </g>
</svg>