<!DOCTYPE svg PUBLIC "-//W3C//DTD SVG 1.1//EN" "http://www.w3.org/Graphics/SVG/1.1/DTD/svg11.dtd">
<!-- Uploaded to: SVG Repo, www.svgrepo.com, Transformed by: SVG Repo Mixer Tools -->
<svg fill="#000000" version="1.1" id="Layer_1" xmlns="http://www.w3.org/2000/svg" xmlns:xlink="http://www.w3.org/1999/xlink" viewBox="-49.6 -49.6 595.20 595.20" xml:space="preserve" width="800px" height="800px">
<g id="SVGRepo_bgCarrier" stroke-width="0">
<path transform="translate(-49.6, -49.6), scale(18.6)" d="M16,27.99163783660957C17.751113876188356,27.644399323486663,19.667946303082125,28.627420062295737,21.296241511049367,27.895553197294912C22.924367870976223,27.163762224113565,23.508756858152715,25.1373217297406,24.88353558387403,23.998771367383945C26.50564674818323,22.655387723635734,28.980127851487573,22.358883408063,30.12010049928149,20.587898765004653C31.25826463109404,18.819723710435927,31.197158280395747,16.515828777618804,31.0505431850038,14.41812416820714C30.901723660228715,12.288879548090783,30.467389401944363,10.104908494015788,29.26419069518459,8.341915931552652C28.080312241469326,6.607232460705902,26.23311912939773,5.412647336998489,24.317303772782033,4.55221346007613C22.54660133030331,3.7569529135956694,20.497456315861445,4.140801390550524,18.641826455405596,3.571183713882114C16.5931065295696,2.942293702372869,14.866046996345096,0.39630630376359355,12.816280065508423,1.0217753360441328C10.68387300102841,1.6724613057431794,10.650279098324495,4.895903438197273,9.088002877988327,6.486452126914344C7.81957924875662,7.777830382533007,5.736311009892677,8.013929335130335,4.5802802988840625,9.406821756490633C3.3726100236116743,10.861934287594039,2.6015544503153825,12.690516528319748,2.380299510641466,14.5685117955184C2.158264854935525,16.45312523368335,2.4561337838711124,18.430001962157252,3.318040462381475,20.120618440601017C4.1494675732904405,21.75144972358508,6.188618870430072,22.406527670981664,7.165504111208936,23.954615827600108C8.37613363624638,25.873122886084097,7.614696127595272,29.256538025604325,9.678020942185853,30.19939744770287C11.730652690254763,31.137370553090744,13.786315087384127,28.43060223979991,16,27.99163783660957" fill="#ee9d11" strokewidth="0"/>
</g>
<g id="SVGRepo_tracerCarrier" stroke-linecap="round" stroke-linejoin="round"/>
<g id="SVGRepo_iconCarrier"> <g> <g> <g> <path d="M456,0H40C17.944,0,0,17.944,0,40v360c0,22.056,17.944,40,40,40h72v40H80v16h336v-16h-32v-40h72 c22.056,0,40-17.944,40-40V40C496,17.944,478.056,0,456,0z M368,480H128v-40h240V480z M480,400c0,13.232-10.768,24-24,24H40 c-13.232,0-24-10.768-24-24v-16h464V400z M480,368H16V40c0-13.232,10.768-24,24-24h416c13.232,0,24,10.768,24,24V368z"/> <path d="M48,336h400V48H48V336z M64,64h368v256H64V64z"/> <path d="M192,88c-57.344,0-104,46.656-104,104s46.656,104,104,104s104-46.656,104-104S249.344,88,192,88z M104,192 c0-45.824,35.216-83.536,80-87.592v80.816l-79.672,13.28C104.168,196.344,104,194.192,104,192z M192,280 c-40.816,0-75.128-27.968-85.032-65.72l82.576-13.76l62.544,55.592C236.336,270.88,215.24,280,192,280z M262.72,244.152 L200,188.408v-84c44.784,4.056,80,41.768,80,87.592C280,211.536,273.528,229.536,262.72,244.152z"/> <path d="M312,168h104V88H312V168z M328,104h72v48h-72V104z"/> <rect x="312" y="184" width="104" height="16"/> <rect x="312" y="216" width="104" height="16"/> <rect x="312" y="248" width="104" height="16"/> <rect x="400" y="280" width="16" height="16"/> <rect x="312" y="280" width="72" height="16"/> </g> </g> </g> </g>
</svg>