<!DOCTYPE svg PUBLIC "-//W3C//DTD SVG 1.1//EN" "http://www.w3.org/Graphics/SVG/1.1/DTD/svg11.dtd">
<!-- Uploaded to: SVG Repo, www.svgrepo.com, Transformed by: SVG Repo Mixer Tools -->
<svg fill="#000000" height="800px" width="800px" version="1.1" id="Artwork" xmlns="http://www.w3.org/2000/svg" xmlns:xlink="http://www.w3.org/1999/xlink" viewBox="-51.2 -51.2 614.40 614.40" enable-background="new 0 0 512 512" xml:space="preserve">
<g id="SVGRepo_bgCarrier" stroke-width="0">
<path transform="translate(-51.2, -51.2), scale(19.2)" d="M16,27.99321466591209C18.09221093335076,27.29363934658899,19.454633299835614,25.431087215995316,21.430740028842607,24.450396432612624C23.761546210995522,23.293677462358733,27.34129151073686,24.03292940124621,28.585238155916258,21.747485685278914C29.80638252675081,19.503935498116206,27.244677954404985,16.963877667446756,26.881794758748185,14.435434113983746C26.518778801159403,11.90606552167881,27.6991147031939,9.171230182492819,26.459590386459624,6.936713337752735C25.14154493678835,4.560644776884915,22.633936280953808,3.040134862997663,20.066771776021774,2.14984725892767C17.424415792876708,1.233483398016265,14.474711257894237,0.9015024874034,11.851222061585933,1.8705599181579444C9.29650599935414,2.8142141123728055,7.892939824260518,5.376090470969575,6.008773622164865,7.342553061451493C4.010194977529666,9.428425387597619,0.6276125124488101,10.881295739685426,0.4546449539473212,13.764915371932394C0.2795623091895922,16.683796554410105,3.95737050490135,18.28516172105318,5.193449524605027,20.93518623923527C6.414216720410925,23.55238380371911,5.178557049824416,27.497005567130156,7.596444164112059,29.076188121636665C10.010003201721375,30.652543901003597,13.266049374563895,28.907369329438275,16,27.99321466591209" fill="#ee9d11" strokewidth="0"/>
</g>
<g id="SVGRepo_tracerCarrier" stroke-linecap="round" stroke-linejoin="round"/>
<g id="SVGRepo_iconCarrier"> <g> <path d="M345.8,93.6H223.6c-6.8,0-12.3,5.5-12.3,12.3c0,6.8,5.5,12.3,12.3,12.3h122.1c6.8,0,12.3-5.5,12.3-12.3 C358,99.1,352.5,93.6,345.8,93.6z"/> <circle cx="123.9" cy="105.9" r="13.8"/> <path d="M358,226.8c0-6.8-5.5-12.3-12.3-12.3H223.6c-6.8,0-12.3,5.5-12.3,12.3c0,6.8,5.5,12.3,12.3,12.3h122.1 C352.5,239.1,358,233.6,358,226.8z"/> <circle cx="123.9" cy="226.8" r="13.8"/> <path d="M84,420.5h197.1c6.8,0,12.3-5.5,12.3-12.3s-5.5-12.3-12.3-12.3H84c-26.5,0-48-21.5-48-48v-0.5c0-26.5,21.5-48,48-48h219.2 c6.8,0,12.3-5.5,12.3-12.3c0-6.8-5.5-12.3-12.3-12.3H84c-26.5,0-48-21.5-48-48v-0.5c0-26.5,21.5-48,48-48h287.7 c26.5,0,48,21.5,48,48v0.5c0,6.8,5.5,12.3,12.3,12.3s12.3-5.5,12.3-12.3v-0.5c0-24.5-12.2-46.1-30.9-59.3 c18.6-12.2,30.9-33.3,30.9-57.1v-8.6c0-37.7-30.7-68.4-68.4-68.4H80c-37.7,0-68.4,30.7-68.4,68.4v8.6c0,23.9,12.3,44.9,30.9,57.1 c-18.6,13.1-30.9,34.8-30.9,59.3v0.5c0,25.1,12.8,47.2,32.2,60.2c-19.4,13-32.2,35.1-32.2,60.2v0.5C11.6,388,44.1,420.5,84,420.5z M80,154.1c-24.2,0-43.9-19.7-43.9-43.9v-8.6c0-24.2,19.7-43.9,43.9-43.9h295.9c24.2,0,43.9,19.7,43.9,43.9v8.6 c0,24.2-19.7,43.9-43.9,43.9h-4.1H84H80z"/> <path d="M223.6,335.5c-6.8,0-12.3,5.5-12.3,12.3s5.5,12.3,12.3,12.3h55.3c6.8,0,12.3-5.5,12.3-12.3s-5.5-12.3-12.3-12.3H223.6z"/> <circle cx="123.9" cy="347.8" r="13.8"/> <path d="M500.4,454.8v-78.4c0-13.3-10.8-24.1-24.1-24.1h-1.7v-28.7c0-35.9-29.2-65.2-65.2-65.2c-28.7,0-53.7,18.4-62.3,45.8 c-2,6.5,1.6,13.3,8.1,15.3c6.5,2,13.3-1.6,15.3-8.1c5.3-17.1,20.9-28.6,38.9-28.6c22.4,0,40.7,18.3,40.7,40.7v28.7H342.6 c-13.3,0-24.1,10.8-24.1,24.1v78.4c0,13.3,10.8,24.1,24.1,24.1h133.8C489.6,478.9,500.4,468.1,500.4,454.8z M475.9,454.4H343.1 v-77.5h132.9V454.4z"/> </g> </g>
</svg>