<!DOCTYPE svg PUBLIC "-//W3C//DTD SVG 1.1//EN" "http://www.w3.org/Graphics/SVG/1.1/DTD/svg11.dtd">
<!-- Uploaded to: SVG Repo, www.svgrepo.com, Transformed by: SVG Repo Mixer Tools -->
<svg fill="#000000" version="1.1" id="Layer_1" xmlns="http://www.w3.org/2000/svg" xmlns:xlink="http://www.w3.org/1999/xlink" viewBox="-49.6 -49.6 595.20 595.20" xml:space="preserve" width="800px" height="800px">
<g id="SVGRepo_bgCarrier" stroke-width="0">
<path transform="translate(-49.6, -49.6), scale(18.6)" d="M16,29.730564410487812C18.530862327090443,29.38467013829379,20.977668094011133,28.397716655520213,22.852728612543316,26.66305385887526C24.565387674622595,25.07863248742459,24.924792973237075,22.640232845280845,25.936663512504946,20.537922174377602C26.97439183701439,18.38188813103719,29.137575647690838,16.527141307609885,28.876054916899303,14.148702790662632C28.613980884292264,11.765232189469092,26.583318137001847,9.905472342262494,24.616726693553048,8.533563817660806C22.89561214380973,7.3329017632851325,20.446371875373313,8.07665905663621,18.640250875231885,7.008131286756596C15.87638125986592,5.3729853380002455,14.746523321552683,0.7802176199644367,11.535218638179181,0.7943510916162531C8.618324131447853,0.8071888164312392,7.033136055496586,4.476562510915164,5.6886144216121615,7.065133534973532C4.531600767733032,9.292700532329011,4.1634139731741575,11.858085358836211,4.496383389116149,14.346029628914883C4.780351216403494,16.46783450035486,6.926030296750406,17.837748133116058,7.409446509271293,19.92317432573777C8.08579710626913,22.8409069417362,5.854101347065708,26.463543869168095,7.827569429453327,28.716550188803645C9.6736593593497,30.824135467629116,13.224027339652155,30.109958039569722,16,29.730564410487812" fill="#ee9d11" strokewidth="0"/>
</g>
<g id="SVGRepo_tracerCarrier" stroke-linecap="round" stroke-linejoin="round"/>
<g id="SVGRepo_iconCarrier"> <g> <g> <g> <path d="M72,224h48v-80H72V224z M88,160h16v48H88V160z"/> <path d="M136,224h48v-96h-48V224z M152,144h16v64h-16V144z"/> <path d="M176,384h-64v-64h-8c-39.696,0-72,32.304-72,72s32.304,72,72,72s72-32.304,72-72V384z M104,448c-30.88,0-56-25.12-56-56 c0-28.168,20.896-51.536,48-55.432V400h63.432C155.536,427.104,132.168,448,104,448z"/> <rect x="176" y="448" width="144" height="16"/> <rect x="336" y="448" width="16" height="16"/> <path d="M496,184v-56h-56v16h28.688l-77.8,77.8c-2.224-1.944-4.528-3.792-6.888-5.568V68.688L315.312,0H0v496h384v-44.688l8-8 l42.056,42.056c6.856,6.856,15.968,10.632,25.656,10.632C479.72,496,496,479.72,496,459.712c0-9.688-3.776-18.808-10.632-25.656 L443.312,392l10.344-10.344l-11.312-11.312L432,380.688l-13.536-13.536C427.064,350.616,432,331.888,432,312 c0-30.208-11.304-57.768-29.8-78.888l77.8-77.8V184H496z M320,27.312L356.688,64H320V27.312z M368,80v125.952 c-5.112-2.712-10.48-4.992-16-6.952V80H368z M336,80v114.416c-7.76-1.576-15.784-2.416-24-2.416V96h-48v106.088 c-5.576,2.448-10.904,5.344-16,8.584V64h-48v160h30.696c-5.384,4.976-10.288,10.424-14.696,16.304V240H48V48h256v32H336z M296,112v81.192c-5.456,0.736-10.8,1.824-16,3.272V112H296z M232,80v128h-16V80H232z M368,480H16V16h288v16H32v224h173.952 C197.08,272.736,192,291.776,192,312c0,1.032,0.128,2.032,0.152,3.056C178.952,298.584,158.696,288,136,288h-8v80h77.952 c20.16,38.016,60.104,64,106.048,64c19.888,0,38.616-4.936,55.152-13.536l0.848,0.848V480z M191.432,352H144v-47.432 C168.488,308.088,187.912,327.512,191.432,352z M474.056,445.368c3.832,3.832,5.944,8.928,5.944,14.344 c0,11.184-9.104,20.288-20.288,20.288c-5.416,0-10.512-2.112-14.344-5.944L403.312,432L432,403.312L474.056,445.368z M420.688,392L392,420.688l-8-8v-4.92c9.936-7.488,18.68-16.432,25.872-26.584L420.688,392z M416,312 c0,57.344-46.656,104-104,104s-104-46.656-104-104s46.656-104,104-104c25.8,0,49.384,9.496,67.576,25.104l-11.312,11.312 C353,231.688,333.384,224,312,224c-48.52,0-88,39.48-88,88c0,48.52,39.48,88,88,88c48.52,0,88-39.48,88-88 c0-21.384-7.688-41-20.416-56.272l11.312-11.312C406.504,262.616,416,286.2,416,312z M317.656,317.656l50.544-50.544 c9.864,12.32,15.8,27.912,15.8,44.888c0,39.696-32.304,72-72,72s-72-32.304-72-72s32.304-72,72-72 c16.976,0,32.568,5.936,44.888,15.8l-50.544,50.544L317.656,317.656z"/> </g> </g> </g> </g>
</svg>