<!DOCTYPE svg PUBLIC "-//W3C//DTD SVG 1.1//EN" "http://www.w3.org/Graphics/SVG/1.1/DTD/svg11.dtd">
<!-- Uploaded to: SVG Repo, www.svgrepo.com, Transformed by: SVG Repo Mixer Tools -->
<svg fill="#000000" version="1.1" id="Layer_1" xmlns="http://www.w3.org/2000/svg" xmlns:xlink="http://www.w3.org/1999/xlink" viewBox="-49.6 -49.6 595.20 595.20" xml:space="preserve" width="800px" height="800px" stroke="#000000" transform="rotate(0)">
<g id="SVGRepo_bgCarrier" stroke-width="0">
<path transform="translate(-49.6, -49.6), scale(18.6)" d="M16,30.160699090609945C18.179580908717952,29.457667489141013,18.96113612572657,26.544171410959873,21.087130777835497,25.692717883445905C23.576927952798663,24.6955626999586,26.986710307533258,26.752853712025725,28.982573232295007,24.961223276368962C30.828128484646538,23.304519842592857,29.718701153478435,20.16390185798795,29.99212654497626,17.698951754587856C30.262753380730725,15.259230837954858,31.758909829103466,12.625307946952635,30.590394792617186,10.466593133737952C29.395334801682644,8.258839168613093,26.291578501284484,8.090692818236814,24.11449971083985,6.840623263110729C22.372115311972955,5.840153413369861,20.792912375811177,4.7276243239200975,19.003688925586665,3.8135549836499205C16.772892408846126,2.67389704988085,14.686094237840445,0.20219846455357116,12.24822245046659,0.7784401269063785C9.817482763209807,1.3529959691726594,9.280135319762273,4.668709296735061,7.593182960910617,6.510665208816659C6.101146653341783,8.1397954467551,4.076663398997654,9.170374416118518,2.8685869731565674,11.019911932525261C1.4948164416190877,13.123123354140095,0.09127378870080513,15.41442877428912,0.13685436945975837,17.92613460260372C0.18335171129559305,20.488358307207665,1.5922998444557437,22.832942809804567,3.120295042812197,24.890218432814713C4.620090120017142,26.90952572852034,6.511494302707833,28.690615354195597,8.839473448260268,29.643243469448926C11.086931248773412,30.56292159143922,13.68890191995009,30.906152025103196,16,30.160699090609945" fill="#ee9d11" strokewidth="0"/>
</g>
<g id="SVGRepo_tracerCarrier" stroke-linecap="round" stroke-linejoin="round"/>
<g id="SVGRepo_iconCarrier"> <g> <g> <g> <path d="M384,248c3.696,0,7.152-0.904,10.28-2.408l24.064,24.064l11.312-11.312l-24.064-24.064 c1.504-3.128,2.408-6.584,2.408-10.28c0-13.232-10.768-24-24-24s-24,10.768-24,24S370.768,248,384,248z M384,216 c4.408,0,8,3.592,8,8s-3.592,8-8,8c-4.408,0-8-3.592-8-8S379.592,216,384,216z"/> <rect x="80" y="224" width="16" height="16"/> <rect x="128" y="224" width="16" height="16"/> <rect x="176" y="224" width="16" height="16"/> <rect x="224" y="224" width="16" height="16"/> <rect x="272" y="224" width="16" height="16"/> <rect x="320" y="224" width="16" height="16"/> <path d="M456,64h-72.336C351.352,24.936,302.536,0,248,0S144.648,24.936,112.336,64H40C17.944,64,0,81.944,0,104v288 c0,22.056,17.944,40,40,40h112v48h-32v16h256v-16h-32v-48h112c22.056,0,40-17.944,40-40V104C496,81.944,478.056,64,456,64z M377.12,81.912c17.84,24.416,28.872,53.992,30.472,86.088h-63.776c-0.76-23.16-4.712-43.696-10.656-61.68 C356.168,97.928,370.344,87.72,377.12,81.912z M367.008,69.44c-5.328,4.568-18.016,13.904-39.536,21.768 c-14.52-34.464-35.792-58.24-52.096-72.688C311.536,24.792,343.496,43.2,367.008,69.44z M256,23.368 c14.664,11.512,39.568,35.144,55.92,72.736c-15.248,4.104-33.808,7.08-55.92,7.68V23.368z M256,119.784 c24.448-0.624,44.936-3.952,61.72-8.576c5.576,16.584,9.328,35.496,10.096,56.792H256V119.784z M448,184v96H48v-96H448z M168.176,168c0.752-21.36,4.448-40.272,9.936-56.832c16.824,4.648,37.36,7.992,61.888,8.616V168H168.176z M240,23.192v80.592 c-22.216-0.608-40.864-3.608-56.144-7.736C200.176,58.12,225.224,34.592,240,23.192z M220.624,18.52 c-16.304,14.456-37.576,38.232-52.096,72.688c-21.52-7.864-34.216-17.2-39.536-21.768C152.504,43.2,184.464,24.792,220.624,18.52 z M118.88,81.912c6.776,5.808,20.952,16.008,43.96,24.408c-5.952,17.984-9.904,38.52-10.656,61.68H88.408 C90.008,135.904,101.04,106.328,118.88,81.912z M328,480H168v-48h160V480z M480,392c0,13.232-10.768,24-24,24H40 c-13.232,0-24-10.768-24-24v-8h464V392z M480,368H16V104c0-13.232,10.768-24,24-24h60.6c-16.688,25.536-26.944,55.632-28.4,88H32 v128h432V168h-40.2c-1.456-32.368-11.712-62.464-28.4-88H456c13.232,0,24,10.768,24,24V368z"/> </g> </g> </g> </g>
</svg>