<!DOCTYPE svg PUBLIC "-//W3C//DTD SVG 1.1//EN" "http://www.w3.org/Graphics/SVG/1.1/DTD/svg11.dtd">
<!-- Uploaded to: SVG Repo, www.svgrepo.com, Transformed by: SVG Repo Mixer Tools -->
<svg width="800px" height="800px" viewBox="-2.4 -2.4 28.80 28.80" fill="none" xmlns="http://www.w3.org/2000/svg">
<g id="SVGRepo_bgCarrier" stroke-width="0">
<path transform="translate(-2.4, -2.4), scale(0.8999999999999999)" d="M16,27.23497309594562C18.107117662678814,26.984772935985905,20.187386689145956,28.428717165276247,22.23920896369599,27.887819468777906C24.42848056771051,27.31068762733693,26.279563659927557,25.826960015796807,27.778326584434957,24.12999183263267C29.37375405829173,22.323575609352584,31.072788040189895,20.245255656176916,31.11735161314239,17.835578813935992C31.161792017163677,15.432562059779332,29.399064969559646,13.407537422987343,28.01293434657621,11.444094944508604C26.847370330071893,9.793083226388433,24.96705287004543,8.885538171238451,23.69195942654009,7.317572648572376C22.12208574175936,5.387119766695696,21.82384527538611,2.3886193429034384,19.65587544167633,1.1675302734914599C17.479049443002822,-0.05854694938371385,14.391686524257338,-0.4401287622390577,12.274998380198545,0.8870743442051516C10.029563317595112,2.295004179675162,9.829206456636207,5.4722338185623,8.857801728716453,7.938124711637384C8.233781066657311,9.522188308854542,8.651699863972425,11.484014026097567,7.579491323237354,12.80652229143282C5.785356551690438,15.019485511133988,1.4643050703096288,15.065234556126093,0.8281926320807624,17.842190939678847C0.29121732842855796,20.186362988002585,3.75397900075531,21.530691772711908,5.12912561751007,23.503622803260775C6.497201854762238,25.466409918282046,6.668524878575603,28.691254210991392,8.931454283601468,29.467988630015594C11.303026975738598,30.28201408441537,13.510103483573923,27.530624600238433,16,27.23497309594562" fill="#ee9d11" strokewidth="0"/>
</g>
<g id="SVGRepo_tracerCarrier" stroke-linecap="round" stroke-linejoin="round"/>
<g id="SVGRepo_iconCarrier"> <path d="M12 11V14M12 14V17M12 14H15M12 14H9M6 7H18M8 5H16M6 9H18C19.1046 9 20 9.89543 20 11V17C20 18.1046 19.1046 19 18 19H6C4.89543 19 4 18.1046 4 17V11C4 9.89543 4.89543 9 6 9Z" stroke="#000000" stroke-linecap="round" stroke-linejoin="round"/> </g>
</svg>