<!DOCTYPE svg PUBLIC "-//W3C//DTD SVG 1.1//EN" "http://www.w3.org/Graphics/SVG/1.1/DTD/svg11.dtd">
<!-- Uploaded to: SVG Repo, www.svgrepo.com, Transformed by: SVG Repo Mixer Tools -->
<svg fill="#000000" version="1.1" id="Layer_1" xmlns="http://www.w3.org/2000/svg" xmlns:xlink="http://www.w3.org/1999/xlink" viewBox="-49.15 -49.15 589.82 589.82" xml:space="preserve" width="800px" height="800px">
<g id="SVGRepo_bgCarrier" stroke-width="0">
<path transform="translate(-49.15, -49.15), scale(18.431875)" d="M16,26.20989180493512C17.748475772627867,26.091983957938428,19.7550407777023,26.88357418460599,21.16825091743073,25.847279396035304C22.61144022959688,24.789001139267285,21.87440399062261,22.182884232176832,23.172177018307657,20.95059634855882C24.98079167975234,19.233243709933117,28.611426701724206,19.87774981574277,29.777087702379333,17.67284131184992C30.8046292782213,15.729192894853828,29.419126078760687,13.21469101126385,28.244340988845288,11.3563339811193C27.142011867827122,9.61259285845601,25.06306964356551,8.87251537145274,23.422875703580488,7.621305383821516C21.902705707483392,6.461654786629715,20.712206280761396,4.842439283170736,18.90127923168713,4.229047444675706C17.032940469680803,3.596209281070811,14.905218706635301,3.390089032537496,13.070561344467793,4.114800171112519C11.27806012895482,4.822859138186782,10.560899856387477,6.962203458432836,9.027258089982766,8.129401402574615C7.339790461217771,9.413670513031631,4.411978694283105,9.337691583300685,3.622093344968258,11.305679205503012C2.836952574558755,13.261845779794548,5.383550720126963,15.18567142447982,5.349194631017715,17.29324191081612C5.30700450997184,19.88139021979536,2.1561816114439702,22.42654221559291,3.4038384342788177,24.694502560929575C4.593001835753377,26.85613498204844,8.0030179341305,26.275207221824886,10.452492312589465,26.569892797840787C12.319409483045103,26.794493457716154,14.123881922362814,26.336407165747527,16,26.20989180493512" fill="#ee9d11" strokewidth="0"/>
</g>
<g id="SVGRepo_tracerCarrier" stroke-linecap="round" stroke-linejoin="round"/>
<g id="SVGRepo_iconCarrier"> <g> <g> <path d="M491.52,285.15v-78.78l-57.55-9.6c-4.49-17.3-11.375-33.86-20.525-49.41l33.95-47.53l-55.715-55.7l-47.53,33.95 c-15.545-9.16-32.11-16.04-49.405-20.53L285.155,0h-78.79l-9.59,57.55c-17.295,4.49-33.86,11.37-49.405,20.53L99.84,44.13 l-55.715,55.7l33.95,47.53c-9.15,15.55-16.035,32.11-20.525,49.41L0,206.37v78.78l57.55,9.6c4.49,17.3,11.375,33.86,20.525,49.41 l-33.95,47.53l55.715,55.7l47.53-33.95c15.545,9.16,32.11,16.04,49.405,20.53l9.59,57.55h78.79l9.59-57.55 c17.295-4.49,33.86-11.37,49.405-20.53l47.53,33.95l55.715-55.7l-33.95-47.53c9.15-15.55,16.035-32.11,20.525-49.41L491.52,285.15 z M415.6,283.55c-4.35,19.65-12.11,38.34-23.065,55.54l-3.715,5.83l31.825,44.55l-31.175,31.18l-44.56-31.83l-5.825,3.71 c-17.205,10.96-35.89,18.72-55.54,23.07l-6.75,1.5l-8.99,53.94h-44.09l-8.99-53.94l-6.75-1.5 c-19.65-4.35-38.335-12.11-55.54-23.07l-5.825-3.71l-44.56,31.83l-31.175-31.18l31.825-44.55l-3.715-5.83 C88.03,321.89,80.27,303.2,75.92,283.55l-1.495-6.75l-53.945-8.99v-44.1l53.945-8.99l1.495-6.75 c4.35-19.65,12.11-38.34,23.065-55.54l3.715-5.83l-31.825-44.55l31.175-31.18l44.56,31.83l5.825-3.71 c17.205-10.96,35.89-18.72,55.54-23.07l6.75-1.5l8.99-53.94h44.09l8.99,53.94l6.75,1.5c19.65,4.35,38.335,12.11,55.54,23.07 l5.825,3.71l44.56-31.83l31.175,31.18L388.82,146.6l3.715,5.83c10.955,17.2,18.715,35.89,23.065,55.54l1.495,6.75l53.945,8.99 v44.1l-53.945,8.99L415.6,283.55z"/> </g> </g> <g> <g> <polygon points="296.69,200.29 282.21,214.77 313.2,245.76 282.21,276.75 296.69,291.23 342.16,245.76 "/> </g> </g> <g> <g> <polygon points="209.31,214.77 194.83,200.29 149.36,245.76 194.83,291.23 209.31,276.75 178.32,245.76 "/> </g> </g> <g> <g> <rect x="180.795" y="241.739" transform="matrix(0.3417 -0.9398 0.9398 0.3417 -75.2008 396.5995)" width="129.409" height="20.48"/> </g> </g> <g> <g> <path d="M245.76,112.64c-73.405,0-133.12,59.72-133.12,133.12s59.715,133.12,133.12,133.12s133.12-59.72,133.12-133.12 S319.165,112.64,245.76,112.64z M245.76,358.4c-62.11,0-112.64-50.53-112.64-112.64s50.53-112.64,112.64-112.64 S358.4,183.65,358.4,245.76S307.87,358.4,245.76,358.4z"/> </g> </g> </g>
</svg>