<!DOCTYPE svg PUBLIC "-//W3C//DTD SVG 1.1//EN" "http://www.w3.org/Graphics/SVG/1.1/DTD/svg11.dtd">
<!-- Uploaded to: SVG Repo, www.svgrepo.com, Transformed by: SVG Repo Mixer Tools -->
<svg width="800px" height="800px" viewBox="-102.4 -102.4 1228.80 1228.80" fill="#000000" class="icon" version="1.1" xmlns="http://www.w3.org/2000/svg">
<g id="SVGRepo_bgCarrier" stroke-width="0">
<path transform="translate(-102.4, -102.4), scale(38.4)" d="M16,26.452840347308666C17.52660243520772,26.42992533693584,19.089363026057324,26.685154457954628,20.52033324319908,26.152834694526845C21.976285613465166,25.611221590342033,23.037351901315326,24.409867632516928,24.215037541228394,23.39685302618063C25.512344182569294,22.28094354063029,26.859898913655893,21.246720083767844,27.848099121138404,19.849680767377656C29.01720952919032,18.19688491398434,31.046502685531074,16.429892320045077,30.527266551909126,14.473122758560953C29.969977904357567,12.372950232271553,26.395248087558684,12.505112330460081,25.388269682539814,10.57967997156084C24.316600553886197,8.530553189835695,26.77289375771843,5.106459710810537,24.911224905758615,3.734751150461406C23.057198429701955,2.368673619732137,20.50770411446949,5.866236069277261,18.26736634804638,5.332880009762816C15.943304590849998,4.779591822836639,15.167474554523485,0.8977832771678598,12.779011684869895,0.8464413903606083C10.642946551689151,0.8005249912932078,9.64209567311808,3.6448317321181127,8.090952486856859,5.11412999476228C6.702778520037866,6.429057988361137,5.2621754261355065,7.619706960873217,4.059319869726675,9.106045112479471C2.7210764440875925,10.759678625718658,0.6744902719733046,12.254847502423495,0.5918819690999886,14.380541537478962C0.508044420783323,16.53786677201026,2.826053753468646,18.01598318397908,3.635279456436841,20.017541243019316C4.384003801923139,21.869453808587718,3.6285777380758977,24.48544008306389,5.183992555482256,25.73877684619931C6.826524793798612,27.062311903136585,9.314001625056271,26.150492655959106,11.41884067191408,26.289452317995284C12.960388826183083,26.39122400018139,14.455270073753065,26.476027459726936,16,26.452840347308666" fill="#ee9d11" strokewidth="0"/>
</g>
<g id="SVGRepo_tracerCarrier" stroke-linecap="round" stroke-linejoin="round"/>
<g id="SVGRepo_iconCarrier">
<path d="M272.016 512c-79.394 0-143.992-64.598-143.992-143.992 0-79.392 64.598-143.99 143.992-143.99 79.392 0 143.99 64.598 143.99 143.99 0 79.394-64.598 143.992-143.99 143.992z m0-271.984c-70.574 0-127.992 57.42-127.992 127.992 0 70.574 57.418 127.992 127.992 127.992s127.992-57.418 127.992-127.992c0-70.572-57.418-127.992-127.992-127.992z" fill=""/>
<path d="M272.016 543.998c-79.394 0-143.992-64.598-143.992-143.992 0-4.42 3.578-7.998 8-7.998s8 3.578 8 7.998c0 70.574 57.418 127.994 127.992 127.994s127.992-57.42 127.992-127.994a7.994 7.994 0 0 1 8-7.998 7.994 7.994 0 0 1 7.998 7.998c0 79.394-64.598 143.992-143.99 143.992z" fill=""/>
<path d="M136.024 408.006c-4.422 0-8-3.578-8-8v-31.998c0-4.42 3.578-7.998 8-7.998s8 3.578 8 7.998v31.998c0 4.422-3.578 8-8 8zM408.008 408.006c-4.422 0-8-3.578-8-8v-31.998a7.994 7.994 0 0 1 8-7.998 7.994 7.994 0 0 1 7.998 7.998v31.998c0 4.422-3.578 8-7.998 8zM272.016 432.004c-35.288 0-63.996-28.708-63.996-63.996s28.708-63.996 63.996-63.996 63.996 28.708 63.996 63.996-28.71 63.996-63.996 63.996z m0-111.992c-26.466 0-47.998 21.53-47.998 47.996 0 26.468 21.532 47.998 47.998 47.998s47.996-21.53 47.996-47.998c0-26.466-21.53-47.996-47.996-47.996z" fill=""/>
<path d="M325.7 392.008a8.008 8.008 0 0 1-7.672-5.718c-5.998-20.188-24.92-34.28-46.012-34.28s-40.014 14.092-46.014 34.28a7.994 7.994 0 0 1-9.952 5.39 8.012 8.012 0 0 1-5.39-9.954c8.008-26.912 33.232-45.716 61.356-45.716s53.348 18.804 61.356 45.716a8.012 8.012 0 0 1-5.39 9.954 8.348 8.348 0 0 1-2.282 0.328zM231.94 335.932a7.976 7.976 0 0 1-5.656-2.344l-56.074-56.074a8 8 0 0 1 11.312-11.31l56.074 56.074a7.996 7.996 0 0 1-5.656 13.654zM272.016 512c-4.422 0-8-3.578-8-8v-79.994c0-4.422 3.578-8 8-8s8 3.578 8 8V504c0 4.422-3.578 8-8 8zM528 96.026h-31.998c-4.422 0-8-3.578-8-8V56.028c0-4.422 3.578-8 8-8H528c4.422 0 8 3.578 8 8v31.998c0 4.422-3.578 8-8 8z m-23.998-16H520v-15.998h-15.998v15.998z" fill=""/>
<path d="M983.972 767.984H40.03c-4.422 0-8-3.578-8-8V152.022c0-4.422 3.578-8 8-8h943.944c4.422 0 8 3.578 8 8v607.962a8 8 0 0 1-8.002 8z m-935.942-16h927.944V160.022H48.03v591.962z" fill=""/>
<path d="M1015.97 160.022H8.032c-4.422 0-8-3.578-8-8V88.026c0-4.422 3.578-8 8-8h1007.94a7.994 7.994 0 0 1 7.998 8v63.996a7.998 7.998 0 0 1-8 8z m-999.938-16h991.94V96.026H16.032v47.996z" fill=""/>
<path d="M967.972 128.024H56.03c-4.422 0-8-3.578-8-8s3.578-8 8-8h911.944c4.422 0 8 3.578 8 8s-3.58 8-8.002 8zM727.988 975.972a8.08 8.08 0 0 1-3.578-0.844l-215.988-107.994c-3.952-1.968-5.552-6.782-3.576-10.734s6.788-5.53 10.732-3.578l215.988 107.994a8 8 0 1 1-3.578 15.156zM791.984 975.972a8.08 8.08 0 0 1-3.578-0.844l-279.984-139.992c-3.952-1.968-5.552-6.782-3.576-10.734s6.788-5.546 10.732-3.578l279.984 139.992a8 8 0 1 1-3.578 15.156z" fill=""/>
<path d="M791.984 975.972h-63.996c-4.422 0-8-3.578-8-8s3.578-8 8-8h63.996c4.422 0 8 3.578 8 8s-3.578 8-8 8zM296.022 975.972a8.012 8.012 0 0 1-7.164-4.422 7.996 7.996 0 0 1 3.578-10.734l215.986-107.994a8.02 8.02 0 0 1 10.734 3.578 7.996 7.996 0 0 1-3.578 10.734l-215.986 107.994a8.096 8.096 0 0 1-3.57 0.844zM232.026 975.972a8.012 8.012 0 0 1-7.164-4.422 7.996 7.996 0 0 1 3.578-10.734l279.982-139.992a8.006 8.006 0 0 1 10.734 3.578 7.996 7.996 0 0 1-3.578 10.734l-279.982 139.992a8.096 8.096 0 0 1-3.57 0.844z" fill=""/>
<path d="M296.014 975.972h-63.996c-4.422 0-8-3.578-8-8s3.578-8 8-8h63.996c4.422 0 8 3.578 8 8s-3.578 8-8 8zM496.002 843.98c-4.422 0-8-3.578-8-8v-75.996c0-4.422 3.578-8 8-8s8 3.578 8 8v75.996c0 4.422-3.578 8-8 8zM528 843.98c-4.422 0-8-3.578-8-8v-75.996c0-4.422 3.578-8 8-8s8 3.578 8 8v75.996c0 4.422-3.578 8-8 8zM528 975.972c-4.422 0-8-3.578-8-8v-99.994c0-4.422 3.578-8 8-8s8 3.578 8 8v99.994c0 4.422-3.578 8-8 8z" fill=""/>
<path d="M528 975.972h-31.998c-4.422 0-8-3.578-8-8s3.578-8 8-8H528c4.422 0 8 3.578 8 8s-3.578 8-8 8z" fill=""/>
<path d="M496.002 975.972c-4.422 0-8-3.578-8-8v-99.994c0-4.422 3.578-8 8-8s8 3.578 8 8v99.994c0 4.422-3.578 8-8 8zM512 719.988a7.994 7.994 0 0 1-7.998-8V200.02c0-4.422 3.578-8 7.998-8 4.422 0 8 3.578 8 8v511.968c0 4.422-3.578 8-8 8zM599.996 528c-4.422 0-8-3.578-8-8V248.016c0-4.422 3.578-8 8-8s8 3.578 8 8V520c0 4.422-3.578 8-8 8z" fill=""/>
<path d="M903.976 528h-303.98c-4.422 0-8-3.578-8-8s3.578-8 8-8h303.98c4.422 0 8 3.578 8 8s-3.578 8-8 8z" fill=""/>
<path d="M903.976 607.994h-303.98c-4.422 0-8-3.578-8-8a7.994 7.994 0 0 1 8-7.998h303.98c4.422 0 8 3.578 8 7.998 0 4.422-3.578 8-8 8z" fill=""/>
<path d="M871.978 639.992H631.994c-4.422 0-8-3.578-8-8s3.578-8 8-8h239.984c4.422 0 8 3.578 8 8s-3.578 8-8 8z" fill=""/>
<path d="M823.982 671.99h-143.992a7.994 7.994 0 0 1-7.998-8 7.994 7.994 0 0 1 7.998-7.998h143.992a7.994 7.994 0 0 1 7.998 7.998c0 4.422-3.578 8-7.998 8z" fill=""/>
<path d="M424.006 607.994H120.026c-4.422 0-8-3.578-8-8a7.994 7.994 0 0 1 8-7.998h303.98c4.422 0 8 3.578 8 7.998 0 4.422-3.578 8-8 8z" fill=""/>
<path d="M392.008 639.992H152.024c-4.422 0-8-3.578-8-8s3.578-8 8-8h239.984c4.422 0 8 3.578 8 8s-3.578 8-8 8z" fill=""/>
<path d="M344.012 671.99H200.02c-4.422 0-8-3.578-8-8a7.994 7.994 0 0 1 8-7.998h143.992a7.994 7.994 0 0 1 7.998 7.998c0 4.422-3.578 8-7.998 8z" fill=""/>
<path d="M631.994 464.002a7.996 7.996 0 0 1-5.656-13.654l95.994-95.994a8 8 0 0 1 11.312 11.31l-95.996 95.994a7.968 7.968 0 0 1-5.654 2.344z" fill=""/>
<path d="M775.984 416.006a7.976 7.976 0 0 1-5.656-2.344l-47.996-47.998a8 8 0 0 1 11.312-11.31l47.996 47.996a8 8 0 0 1-5.656 13.656z" fill=""/>
<path d="M775.984 416.006a8 8 0 0 1-5.656-13.656l127.992-127.992a8 8 0 1 1 11.312 11.312l-127.992 127.992a7.974 7.974 0 0 1-5.656 2.344z" fill=""/>
<path d="M903.976 320.012c-4.422 0-8-3.578-8-8v-31.998c0-4.422 3.578-8 8-8s8 3.578 8 8v31.998c0 4.422-3.578 8-8 8z" fill=""/>
<path d="M903.976 288.014h-31.998c-4.42 0-7.998-3.578-7.998-8s3.578-8 7.998-8h31.998c4.422 0 8 3.578 8 8s-3.578 8-8 8z" fill=""/>
</g>
</svg>