<!DOCTYPE svg PUBLIC "-//W3C//DTD SVG 1.1//EN" "http://www.w3.org/Graphics/SVG/1.1/DTD/svg11.dtd">
<!-- Uploaded to: SVG Repo, www.svgrepo.com, Transformed by: SVG Repo Mixer Tools -->
<svg fill="#000000" version="1.1" id="Layer_1" xmlns="http://www.w3.org/2000/svg" xmlns:xlink="http://www.w3.org/1999/xlink" viewBox="-49.6 -49.6 595.20 595.20" xml:space="preserve" width="800px" height="800px">
<g id="SVGRepo_bgCarrier" stroke-width="0">
<path transform="translate(-49.6, -49.6), scale(18.6)" d="M16,30.656546177808195C17.977763020895488,30.158592318224375,19.249574753722626,28.288784145422433,21.022452426828877,27.280612845842136C22.62233733856823,26.370816261951994,24.597170721386647,26.20134797156693,25.97676624935225,24.983120679930956C27.4017778204592,23.724789559229592,28.127102934310784,21.91079274776503,29.01012069237423,20.227244463319686C30.009768926518547,18.32133027951732,31.776261153863057,16.505857504451416,31.545364076982906,14.366116396762195C31.31434919511342,12.225283581106032,29.42551059734874,10.609349138401942,27.817705915852528,9.177044308278713C26.404787141815746,7.918352622705682,24.175961199214832,7.929804818494453,22.828779994056905,6.600990677304829C21.177315568988128,4.9720418222428755,21.54254725718079,1.0579743304220952,19.247154140244525,0.7233408616880084C16.859720264505263,0.3752892476454287,15.764991764508839,3.992957992451047,13.719917849710088,5.273056863661685C12.397787600751986,6.1006345013390275,10.831894250372555,6.311955824246458,9.385624080091173,6.8960925686376005C7.598913771281014,7.617730312680543,5.6181254402145635,7.923017555649096,4.1294846175583295,9.146554748527699C2.4493837026602856,10.52745598802154,-0.08326682230767146,12.213429090523176,0.3149357153511385,14.351433313268995C0.7783361813891867,16.839494185599822,5.162046045019595,16.861394826402016,6.010464895945255,19.24579671151742C6.823556480771243,21.530914617036988,3.784570811077723,23.999599995600235,4.56507504646771,26.296052674402752C5.260807423430693,28.343083822168364,7.6892365123259525,29.358636651152487,9.709373714569157,30.128977967966122C11.697228889747375,30.88700914108702,13.93690449960566,31.175984733518586,16,30.656546177808195" fill="#ee9d11" strokewidth="0"/>
</g>
<g id="SVGRepo_tracerCarrier" stroke-linecap="round" stroke-linejoin="round"/>
<g id="SVGRepo_iconCarrier"> <g> <g> <g> <path d="M496,296v-96h-37.392c-5.4-23.848-14.712-46.336-27.736-66.992l26.432-26.432l-67.88-67.88l-26.432,26.432 C342.328,52.096,319.84,42.792,296,37.392V0h-96v37.392c-23.84,5.4-46.328,14.704-66.992,27.736l-26.432-26.432l-67.88,67.88 l26.44,26.432C52.096,153.68,42.792,176.16,37.392,200H0v96h37.4c1.224,5.352,2.736,10.688,4.384,16H32 c-17.648,0-32,14.352-32,32v120c0,17.648,14.352,32,32,32h432c17.648,0,32-14.352,32-32V344c0-17.648-14.352-32-32-32h-9.784 c1.648-5.312,3.16-10.648,4.384-16H496z M464,328c8.824,0,16,7.176,16,16v120c0,8.824-7.176,16-16,16H32c-8.824,0-16-7.176-16-16 V344c0-8.824,7.176-16,16-16H464z M240,256v32.256c-22.264,0.6-41.384,3.48-57.32,7.592c-3.624-12.864-5.696-26.184-6.288-39.848 H240z M176.384,240c0.64-14.392,2.792-27.744,6.232-39.856c16.008,4.128,35.064,7.048,57.384,7.64V240H176.384z M240.008,304.248 V312h-51.88c-0.12-0.312-0.224-0.624-0.344-0.936C202.312,307.4,219.712,304.824,240.008,304.248z M240,191.784 c-20.32-0.576-37.696-3.232-52.296-6.944c14.16-36.4,37.904-60.6,52.296-72.776V191.784z M172.08,180.264 c-18.568-6.408-31.16-14.072-38.472-19.368c21.304-27.904,52.464-47.808,88.32-54.408 C205.992,121.28,185.072,145.696,172.08,180.264z M167.072,195.552c-3.768,13.48-6.264,28.288-6.888,44.44H104.4 c1.336-23.968,8.504-46.352,20.184-65.808C133.088,180.36,146.984,188.68,167.072,195.552z M160.192,256 c0.608,15.232,2.976,30.088,7.04,44.44c-10.704,3.656-19.536,7.696-26.736,11.56h-21.432c-8.648-17.416-13.736-36.536-14.824-56 H160.192z M335.808,240.008V240c-0.632-16.152-3.12-30.96-6.888-44.44c20.088-6.88,33.984-15.192,42.488-21.368 c11.68,19.456,18.856,41.84,20.184,65.816H335.808z M391.744,256c-1.088,19.464-6.176,38.584-14.824,56h-21.424 c-7.2-3.864-16.032-7.904-26.736-11.56c4.064-14.352,6.432-29.208,7.04-44.44H391.744z M323.952,180.344 c-12.992-34.616-33.928-59.048-49.88-73.856c35.88,6.6,67.056,26.52,88.36,54.456 C355.152,166.256,342.592,173.936,323.952,180.344z M308.32,184.904c-14.576,3.688-31.952,6.312-52.32,6.88v-79.72 C270.408,124.24,294.16,148.472,308.32,184.904z M313.384,200.152c3.44,12.112,5.592,25.456,6.232,39.856H256V240v-32.216 C278.32,207.192,297.376,204.28,313.384,200.152z M319.608,256c-0.6,13.664-2.672,26.984-6.288,39.848 c-15.928-4.112-35.056-7-57.32-7.592V256H319.608z M308.224,311.064c-0.12,0.312-0.224,0.624-0.352,0.936H256v-7.752 C276.288,304.824,293.688,307.4,308.224,311.064z M445.528,280l-1.264,6.472c-1.672,8.544-4.096,17.096-6.944,25.528h-42.744 C403.344,291.896,408,270.032,408,248c0-88.224-71.776-160-160-160S88,159.776,88,248c0,22.032,4.656,43.896,13.424,64H58.68 c-2.848-8.44-5.272-16.984-6.944-25.528L50.472,280H16v-64h34.48l1.256-6.472c5.128-26.304,15.312-50.904,30.272-73.12 l3.688-5.464L61.32,106.576l45.256-45.256l24.36,24.368l5.472-3.68c22.208-14.96,46.816-25.152,73.128-30.272L216,50.48V16h64 v34.48l6.472,1.256c26.312,5.128,50.912,15.312,73.128,30.272l5.472,3.68l24.36-24.368l45.256,45.256l-24.376,24.368l3.688,5.472 c14.96,22.2,25.152,46.8,30.272,73.12L445.52,216H480v64H445.528z"/> <rect x="448" y="448" width="16" height="16"/> <rect x="416" y="448" width="16" height="16"/> <rect x="384" y="448" width="16" height="16"/> </g> </g> </g> </g>
</svg>