<!DOCTYPE svg PUBLIC "-//W3C//DTD SVG 1.1//EN" "http://www.w3.org/Graphics/SVG/1.1/DTD/svg11.dtd">
<!-- Uploaded to: SVG Repo, www.svgrepo.com, Transformed by: SVG Repo Mixer Tools -->
<svg fill="#000000" version="1.1" id="Layer_1" xmlns="http://www.w3.org/2000/svg" xmlns:xlink="http://www.w3.org/1999/xlink" viewBox="-49.6 -49.6 595.20 595.20" xml:space="preserve" width="800px" height="800px">
<g id="SVGRepo_bgCarrier" stroke-width="0">
<path transform="translate(-49.6, -49.6), scale(18.6)" d="M16,27.73515436798334C17.577462587907206,27.419555002883552,18.746179690373115,25.976221082377258,20.337930065023862,25.743150448668302C22.632536521443466,25.407164737951746,25.866789278769886,27.984041072818677,27.210201318543795,26.09371060460981C28.65744981070486,24.05727067493505,25.230444794344333,21.469839481070203,25.149432173382472,18.972830722479014C25.100813608239495,17.47428664933638,27.264412569734482,16.299757927506043,26.845738473896688,14.860066951809566C26.39625111563251,13.314418678329318,23.628506287348785,13.422653078529978,23.09386136194921,11.90435723308474C22.383119245836344,9.885976900996807,24.770336318918822,7.348424089779008,23.57551030560987,5.573204577015524C22.586152789068436,4.103261046409248,20.115714353418255,5.145216512829081,18.364212503833244,4.87725466926069C16.704154226682938,4.623282755681748,15.074946084019528,3.5834968884553975,13.454594384966132,4.02480810267612C11.830886802006518,4.467033309335831,11.012996258815956,6.273017080805609,9.64432351626574,7.252161795424362C8.265103736540606,8.238851831421742,6.6014293160715845,8.718600682603467,5.328025868257058,9.838532862253482C3.7974795088651048,11.184616951527039,1.3641849840603184,12.432544042981108,1.4379823919413912,14.469470275379674C1.5168786737509445,16.647133565607604,4.518405046144203,17.507325610514183,5.672823689173599,19.355502989857378C6.5242305505669504,20.718570808751487,6.4449290787745195,22.47504108545608,7.291681621092929,23.84100508740113C8.212671211164286,25.326726786870836,9.217946189233313,26.93506573932612,10.813689709832143,27.648643632594826C12.409511710737412,28.362256620357734,14.285858666111272,28.078098740048798,16,27.73515436798334" fill="#ee9d11" strokewidth="0"/>
</g>
<g id="SVGRepo_tracerCarrier" stroke-linecap="round" stroke-linejoin="round"/>
<g id="SVGRepo_iconCarrier"> <g> <g> <g> <path d="M400,144h-16c-8.824,0-16-7.176-16-16h-16c0,17.648,14.352,32,32,32v16h16v-16c17.648,0,32-14.352,32-32 s-14.352-32-32-32h-16c-8.824,0-16-7.176-16-16s7.176-16,16-16h16c8.824,0,16,7.176,16,16h16c0-17.648-14.352-32-32-32V32h-16v16 c-17.648,0-32,14.352-32,32s14.352,32,32,32h16c8.824,0,16,7.176,16,16S408.824,144,400,144z"/> <rect x="96" width="16" height="16"/> <rect x="47.999" y="12.854" transform="matrix(0.4999 0.8661 -0.8661 0.4999 46.0678 -38.071)" width="16" height="16"/> <rect x="12.855" y="48.001" transform="matrix(0.8661 0.4999 -0.4999 0.8661 30.7876 -2.9262)" width="16" height="16"/> <rect x="179.137" y="48.01" transform="matrix(0.4999 0.8661 -0.8661 0.4999 142.0979 -134.0659)" width="16" height="16"/> <rect x="143.992" y="12.889" transform="matrix(0.8661 0.4999 -0.4999 0.8661 30.7961 -73.1825)" width="16" height="16"/> <path d="M104,368c13.232,0,24-10.768,24-24s-10.768-24-24-24s-24,10.768-24,24S90.768,368,104,368z M104,336c4.416,0,8,3.584,8,8 c0,4.416-3.584,8-8,8s-8-3.584-8-8C96,339.584,99.584,336,104,336z"/> <rect x="48" y="432" width="16" height="16"/> <rect x="144" y="432" width="16" height="16"/> <path d="M400.552,295.88C405.448,280.384,408,264.344,408,248c0-13.64-1.856-27.216-5.368-40.544C455,202.12,496,157.752,496,104 C496,46.656,449.344,0,392,0c-53.76,0-98.12,41-103.464,93.376c-29.688-7.808-60.768-6.968-90.152,2.624h-22.856 C171.536,60.056,141,32,104,32S36.464,60.056,32.472,96H0v112h93.216C89.792,221.152,88,234.552,88,248 c0,13.8,1.912,27.544,5.512,41.024C67.632,293.952,48,316.712,48,344v2.704c0,10.144,2.76,20.112,7.984,28.816l7.672,12.784 C25.152,396.776,0,416.776,0,440c0,31.4,45.68,56,104,56s104-24.6,104-56c0-23.224-25.152-43.224-63.656-51.704l7.584-12.648 C179.608,396.512,213.288,408,248,408c14.24,0,28.424-2.056,42.312-5.88C294.144,410.288,302.392,416,312,416v48 c0,17.648,14.352,32,32,32s32-14.352,32-32v-43.344l78.864,11.272L496,432V288h-40L400.552,295.88z M304.008,103.856v-0.016 C304.096,55.392,343.528,16,392,16c48.52,0,88,39.48,88,88s-39.48,88-88,88c-48.52,0-88-39.48-88-88 C304,103.952,304.008,103.904,304.008,103.856z M192,112v80h-48v-80H192z M104,48c28.152,0,51.456,20.912,55.36,48h-16.168 c-3.72-18.232-19.88-32-39.192-32S68.528,77.768,64.808,96H48.64C52.544,68.912,75.848,48,104,48z M126.528,96H81.48 c3.312-9.288,12.112-16,22.528-16S123.216,86.712,126.528,96z M16,192v-80h112v80H16z M64,344c0-22.056,17.944-40,40-40 c22.056,0,40,17.944,40,40v2.704c0,7.24-1.968,14.36-5.704,20.576L104,424.456L69.704,367.28 C65.968,361.064,64,353.944,64,346.704V344z M192,440c0,18.92-36.144,40-88,40s-88-21.08-88-40 c0-15.872,23.416-31.096,56.376-37.16L104,455.544l31.624-52.704C168.584,408.904,192,424.128,192,440z M288,328v58.176 c-44.944,12.968-93.712,2.976-129.768-25.824c1.12-4.448,1.768-9.024,1.768-13.648V344c0-28.864-21.96-52.688-50.048-55.672 C106.08,275.104,104,261.584,104,248c0-13.464,2.048-26.88,5.864-40h88.256c-8.816,10.968-14.12,24.872-14.12,40h16 c0-26.472,21.528-48,48-48s48,21.528,48,48s-21.528,48-48,48c-13.728,0-26.688-6.016-35.664-16H224v-16h-40v40h16v-13.832 C211.992,303.776,229.456,312,248,312c35.288,0,64-28.712,64-64c0-35.288-28.712-64-64-64c-15.128,0-29.032,5.304-40,14.12 v-88.256c26.352-7.648,53.976-7.608,80.304,0.088c3,52.592,45.16,94.752,97.744,97.752C389.92,220.912,392,234.424,392,248 c0,17.304-3.224,34.224-9.304,50.424L343.472,304H312C298.768,304,288,314.768,288,328z M312,400c-4.4,0-7.976-3.568-7.992-7.968 L304,391.96V384h16v-16h-16v-16h16v-16h-16v-8c0-4.416,3.584-8,8-8h24v80H312z M360,464c0,8.824-7.176,16-16,16 c-8.824,0-16-7.176-16-16v-48h15.44l16.56,2.368V464z M464,304h16v112h-16v-16h-16v14.776l-96-13.712v-82.128l96-13.712V384h16 V304z"/> </g> </g> </g> </g>
</svg>