<!DOCTYPE svg PUBLIC "-//W3C//DTD SVG 1.1//EN" "http://www.w3.org/Graphics/SVG/1.1/DTD/svg11.dtd">
<!-- Uploaded to: SVG Repo, www.svgrepo.com, Transformed by: SVG Repo Mixer Tools -->
<svg fill="#000000" height="800px" width="800px" version="1.1" id="Layer_1" xmlns="http://www.w3.org/2000/svg" xmlns:xlink="http://www.w3.org/1999/xlink" viewBox="-50.4 -50.4 604.83 604.83" xml:space="preserve">
<g id="SVGRepo_bgCarrier" stroke-width="0">
<path transform="translate(-50.4, -50.4), scale(18.9009375)" d="M16,30.563230823725462C17.999208685995878,30.48264656638834,20.130994319242074,29.90557988919457,21.574121554922737,28.51968199456862C23.012658723872665,27.138192140800772,22.445795108385095,24.48629999404381,23.826548358510344,23.047055794895332C25.271843760486796,21.54053533357331,28.988073195758073,22.401326270352495,29.406116301987396,20.35591123650476C29.854403282874937,18.162517979871087,26.022276589037038,17.174247228082,25.470262913709117,15.004635258689708C25.02616052398833,13.25915339213711,26.910776544652542,11.600478883032586,26.722727663774826,9.80923029687256C26.51785831564263,7.857759336362243,25.647709604675132,5.970971652712921,24.36592159262621,4.485296771829878C22.996966071055624,2.8985891319350996,21.26574651357842,1.208925621282343,19.175319202343175,1.061297673451218C17.03556566773674,0.9101862612147963,15.35906015017761,2.8644013960603307,13.387680502052623,3.710003034379117C11.753193277556392,4.411098369394725,9.693626158134318,4.349368654961483,8.479628523585077,5.64909666463539C7.255205117395275,6.959986695583528,8.066070148496662,9.400267811090576,6.8452171318065655,10.71448364667594C5.144523349726955,12.545235317298992,0.20551033971427937,11.867044826346463,0.3883445431695485,14.359148891978599C0.5935468669798037,17.15613947568966,6.594433135431533,16.10733851048143,7.437112080099677,18.782250941810435C8.291257696947321,21.493561985152933,3.491708382483513,23.845828690697942,4.240811846515232,26.588020571056923C4.812830769322256,28.681971167802118,8.165797430707155,28.282104297579913,10.222152465306173,28.977258036934117C12.135056921715512,29.62391810463958,13.982387853526795,30.644556889161652,16,30.563230823725462" fill="#ee9d11" strokewidth="0"/>
</g>
<g id="SVGRepo_tracerCarrier" stroke-linecap="round" stroke-linejoin="round"/>
<g id="SVGRepo_iconCarrier"> <g> <g> <path d="M476.031,116.015h-400c-15.4,0-28,12.6-28,28v104c0,0.6,0.1,1.2,0.1,1.8l-43.3,18.5c-3.2,1.4-5.1,4.6-4.8,8 c0.3,3.4,2.7,6.3,6,7.1l36.9,9.2l-34.3,34.3c-3.1,3.1-3.1,8.2,0,11.3l37.9,37.9c1.5,1.5,3.5,2.3,5.7,2.3s4.2-0.8,5.7-2.3 l33.4-33.4l6.8,38.6c0.6,3.5,3.4,6.1,6.9,6.6c0.3,0,0.6,0.1,1,0.1c3.1,0,6-1.9,7.3-4.8l17.7-40.2h345c15.4,0,28-12.6,28-28v-15 v-141v-15C504.031,128.615,491.431,116.015,476.031,116.015z M72.031,144.015c0-2.2,1.8-4,4-4h400c2.2,0,4,1.8,4,4v143h-324.5 l36.8-84c1.3-3,0.7-6.5-1.6-8.8c-2.3-2.3-5.8-3-8.8-1.7l-109.9,47V144.015z M124.031,319.015v0.1l-14.7,33.5l-4.9-27.7 c-0.5-2.9-2.6-5.3-5.5-6.2c-2.8-0.9-5.9-0.1-8.1,2l-38.6,38.6l-26.6-26.6l38.6-38.7c2-2,2.8-5,2.1-7.8s-3-4.9-5.8-5.6l-27.5-6.9 l136.6-58.6L124.031,319.015z M482.031,315.015c0,2.2-1.8,4-4,4h-336.5l7-16h330.9c1.9,0,2.6,2.2,2.6,3.6V315.015z"/> </g> </g> <g> <g> <path d="M253.231,203.015h-41.2c-4.4,0-8,3.6-8,8c0,4.4,3.6,8,8,8h41.2c4.4,0,8-3.6,8-8 C261.231,206.615,257.631,203.015,253.231,203.015z"/> </g> </g> <g> <g> <path d="M237.731,146.415c-3.1-3.1-8.2-3.1-11.3,0l-29.1,29.1c-3.1,3.1-3.1,8.2,0,11.3c1.5,1.6,3.5,2.3,5.6,2.3 c2,0,4.1-0.8,5.7-2.3l29.1-29.1C240.831,154.615,240.831,149.515,237.731,146.415z"/> </g> </g> <g> <g> <path d="M234.831,256.015l-29.1-29.1c-3.1-3.1-8.2-3.1-11.3,0c-3.2,3.1-3.2,8.2-0.1,11.3l29.1,29.1c1.6,1.6,3.6,2.3,5.7,2.3 c2,0,4.1-0.8,5.7-2.3C237.931,264.215,237.931,259.115,234.831,256.015z"/> </g> </g> <g> <g> <path d="M390.031,175.015c-4.4,0-8,3.6-8,8v42c0,7.7-6.3,14-14,14s-14-6.3-14-14v-42c0-4.4-3.6-8-8-8c-4.4,0-8,3.6-8,8v42 c0,16.5,13.5,30,30,30s30-13.5,30-30v-42C398.031,178.615,394.431,175.015,390.031,175.015z"/> </g> </g> <g> <g> <path d="M321.131,212.915c3.1-4,4.9-8.9,4.9-14.1c0-13.4-11.7-24.1-26.1-24.1c0,0-7.9,0-13.1,0c-4.8,0-8.8,3.5-8.8,7.3 c0,19.4,0,65,0,65c0,4.4,3.5,7.5,7.9,7.5c0.9,0,1.7,0,2.8,0h15.2c14.4,0,26.1-10.7,26.1-23.8 C330.031,223.615,326.531,217.315,321.131,212.915z M294.031,190.515h5.9c5.6,0,10.1,3.7,10.1,8.2s-4.5,8.2-10.1,8.2h-5.9V190.515 z M303.931,238.515h-9.9v-15.5h5.9h4c5.5,0,10.1,3.6,10.1,7.8S309.431,238.515,303.931,238.515z"/> </g> </g> <g> <g> <path d="M462.831,176.615c-3.5-2.7-8.5-1.9-11.2,1.6l-17.6,23.5l-17.6-23.5c-2.6-3.5-7.7-4.3-11.2-1.6c-3.5,2.6-4.3,7.7-1.6,11.2 l22.4,29.9v29.3c0,4.4,3.6,8,8,8c4.4,0,8-3.6,8-8v-29.3l22.4-29.9C467.131,184.315,466.331,179.215,462.831,176.615z"/> </g> </g> </g>
</svg>